<?xml version="1.0" encoding="utf-8"?>
<!-- Generator: Adobe Illustrator 22.1.0, SVG Export Plug-In . SVG Version: 6.00 Build 0)  -->
<svg version="1.1" id="Layer_1" xmlns="http://www.w3.org/2000/svg" xmlns:xlink="http://www.w3.org/1999/xlink" x="0px" y="0px"
	 viewBox="0 0 1925.8 1014.6" style="enable-background:new 0 0 1925.8 1014.6;" xml:space="preserve">
<style type="text/css">
	.st0{fill:#E2ECE6;}
	.st1{fill:#FEFEFE;}
	.st2{fill:#F0F5F2;}
	.st3{fill:#F2F6F3;}
	.st4{fill:#F2F7F4;}
	.st5{fill:#EDF3EF;}
	.st6{fill:#ECF2EE;}
	.st7{fill:#E5EEE8;}
</style>
<g>
	<path class="st0" d="M1318.2,3c1.9,0,4,0,5.9,0c4.5,4.4,11.6,3,16.7,2.9c24-0.4,46.5,4,69,9.3c15.4,3.7,28.6,10.5,42.5,16.3
		c10.2,4.3,18.5,12,32.3,10.5c2.8-0.4,5.5,1.4,4.8,4.5c-1,4.1,2.3,5.3,6.8,5.4c4.2,0.1,8.4-0.2,12.5,1.1c7.8,2.6,15.7,3.8,24.4,1.3
		c4.2-1.1,8.9-2.3,13.6-0.8c1.5,0.4,2.9,0.4,4-0.5c3.2-3.5,8.1-2.8,11.1-1c5.8,3.3,12.9,0.2,18.5,2.9c0.9,0.4,2.8-0.4,4.2-0.6
		c7-1.3,14.2-1.2,19.3,2.6c8.4,6.5,20.2,7,30.2,10.3c5.4,1.6,11.5,3.8,17,4c5.2,0.2,5.8,1.4,7.4,4.6c1.8,3.5,6.1,6.3,10.9,7.9
		c2.6,0.9,5.7,1.2,5.9-1.9c0.4-4.5,4.3-4,8.4-4c10,0.2,10.9,7,14.7,11.4c3.5,4.4,8.9,5.5,14.2,2.1c1.5-1,2.8-2.1,4.2-3
		c2.6-2,6.5-2.9,9.3-1.8c2.5,0.9,0.6,3.7-0.1,5.5c-0.3,0.9-0.3,1.9-0.1,2.8c0.1,1.1,0.9,2.1,2.5,2.4c1.5,0.2,2.9-0.4,2.9-1.2
		c1-5.5,7.7-4.6,12-6.1c0.7,1.4,2.2,2.1,4.5,2.3c3.7,3.9,8.6,6.9,13.4,9.9c0.1,1.4,1.2,2.1,2.9,2.1c0.4,0,0.9,0,1.5,0
		c0.1,1.3,1.2,2.1,2.9,2.1c10.3,4.3,20.6,8.6,32.4,10c0.4,1.2,0.7,2.6,2.9,1.1c1,0,1.9,0,2.9,0c0.7,2.1,2,2.8,4.5,1.1
		c1,0,1.9,0,2.9,0c0.7,2.8,3.5,2,6.1,2.1c1.9,0,3.9,0,5.9,0c7.4,1.8,14.8,1.9,22.2,0c2.6,0,5.4-0.1,8-0.5c5.8-1,10.5-0.9,14.8,3.5
		c4.8,4.9,14.2,8,16.3,13.2c3.5,8.8,14.1,4.5,19.6,8.3c1,0.8,2.6,1.1,3.5,1.9c1.8,1.3,2.3,3.5,0.6,4.6c-5.4,3.5-5.9,7.8-7.4,12.7
		c-1.8,5.8-5.4,10.9-0.9,16.7c0.7,1-0.4,2.1-1.6,2.9c-2.3,1.6-4.6,3.3-7.1,4.8c-2.6,1.4-2.9,2.6-0.1,4.3c2.9,1.5,12.6,0.4,5.2,6.5
		c-0.1,0.1,0.1,0.4,0.1,0.5c3.2,5.9-0.9,9.2-7.4,11.5c-1.8,0.6-3.9,0.6-2.2,2.9c5.8,7.6,8,8.4,19.2,5.6c0.3-0.1,0.7,0.4,1.6,0.9
		c-4.6,4-6.1,10.3-15.5,10.4c-1.5,0-3.5,0.9-3.1,2.5c0.4,1.4,2.2,1.4,3.5,1.3c4.9-0.2,6.8,2.1,8.7,4.9c1.9,2.9-2.8,4.5-2.3,7.2
		c0.6,3.8,6.8,0,7.7,3.7c0.9,3.6,4.6,5.5,9.2,6.5c3.1,0.6,5.4,2.5,2.5,4.5c-4.2,2.8-7.7,6.1-13.2,7.8c-3.4,1.1-9.5-0.1-9.7,3.3
		c-0.4,3.3,5.2,4.5,8.7,5.9c1,0.4,2.3,0.6,3.2,1.3c2.6,2,7.8,3.6,7,6.6c-1.8,6.4,3.1,7.8,9.6,8.3c0,0.8,0,1.4,0,2.1
		c-3.1,0.2-5.1,1.6-6.5,4.3c2.3,0.1,4.5,0.2,6.5,0.2c0,217.3,0,483.8,0,701.1c-7.8,0.4-15.5-2.4-23.4-0.4c-0.6,0.1-1.5-0.1-2-0.4
		c-5.7-3.9-11.7-7.9-14.1-13.2c-1.6-4-4.6-6.3-8.7-6.3c-8.1-0.4-14.1-4.1-21.2-5.9c-4.2-1-4-2.5-3.5-5.4
		c1.9-10.5,14.1-16.9,17.7-26.7c0.7-2,4.8-3.3,2.2-5.9c-2.5-2.3-5.7-0.4-8.3,0c-19.3,2.9-37.5,9-57.4,10.4
		c-8,0.4-15.4-13.2-23.7-14.6c-11.7-1.9-23-0.8-33.9,2.9c-8.3,2.8-17,3.7-25.9,2.5c-1.6-0.2-3.2-0.5-5.1-0.4
		c-10,0.6-20,1.2-30.1,1.9c-4-1.8-7.8-1.8-11.9,0c-7,0-13.8,0-20.8,0c-4-1.8-7.8-1.8-11.9,0c-3.5-0.4-7,0.4-10.3,1
		c-2.3-1.6-3.9-1.1-4.5,1.1c-1.5,0-2.9,0-4.5,0c-2.2-1.5-2.6-0.2-3.1,1.1c-1.2,0-2.5-0.1-3.7,0.1c-5.2,0.8-9.2,2.1-12.9-3.3
		c-3.9-5.9-16.1-7.1-21.1-3.1c-13.1,10.6-28.9,15.9-48.1,16.3c-4.9,0.1-7.7-0.5-7.6-4.6c0-2.5,0.1-5.3-0.4-7.6
		c-1.2-4.1-8.1-6.1-11.2-3c-2.8,2.8-9.2,4.6-6.7,9.5c0.6,1.1-0.6,2.4-1.9,2.6c-7.7,1.4-5.8,5.3-4.2,8.9c0.7,1.6,0.4,3.5-2.3,2.8
		c-3.4-0.8-7.4-0.1-10.3-2.4c-2-1.8-4.5-4-8-1.5c-3.7,2.5-7.1,5.5-5.9,9.4c1.3,4.8-1.8,10.3-8,10.3c-12.6,0.1-13.1,7.6-16.4,13.5
		c-1,0-2,0-3.1,0.1c-3.5,0.2-7-0.5-10.2-1.1c-0.9-1-1.9-1.1-2.9,0c-1.9-0.4-4-0.6-5.9-1c-1.9-1.5-10-12.2-11.9-10.8
		c-7,0-7.8-12.5-14.8-12.5c-2.6-1.5-9.8-8-10.9-5.2c-17.4,0.2-28,2-42.9,8.2c-9,3.8-15.8,9.9-25.9,12.3c-12.9,2.9-24.7,7.5-35,13.9
		c-5.4,3.3-10.9,3.8-16.4,2.1c-14.7-4.1-29.8-6.3-44.9-8.2c-7-1.9-13.8-1.9-20.8,0c-8.9,1.2-17.7,2.1-26.6,3.6
		c-9.5,1.5-18.2,1.1-27.3-2c-16.7-5.8-33.7-11-52.9-10.5c-0.3-1.3-0.7-2.6-2.9-1.1c-9.3,0-18.8,0-28.2,0c-2.2-1.5-2.6-0.4-2.9,1.1
		c-12.9,1.4-25.4,1.2-38.3-1.6c-8.9-2-18.8-1.9-28.3-2.6c-1-1.1-1.9-1.1-2.9,0c-4.2-0.5-7.8,1-11.9,1c-2-1.4-4-1.4-5.9,0.1
		c-21.2,3-41.3,8.2-58.2,18.9c-5.7,3.7-11.2,7-18.5,9.3c-7.7,2.4-17.4-1.3-23.5,4.8c-8.6-2.5-18,0.1-25.9-1.5
		c-8-1.6-14.8,0.2-20.5,1.4c-9.2,2.1-10-1-12-5.5c-2-4.9-5.9-6.3-12.5-4.1c-2.8,1-4.2,1.1-5.7-1.2c-2.3-3.6-6.7-5-11.7-4
		c-2.6,0.5-4.9,0.1-7-0.9c-4.3-2-8.6-3.9-13.8-4.8c-5.4-0.9-5.4-1.9-1.9-5.4c-1-0.2-2-0.5-2.8-0.4c-8.9,1.9-18.2,0.4-27.1,1.5
		c-2,0.4-4.2,0.8-5.4-0.8c-2.8-3.6-7.6-3.1-11.7-4.6c-6.5-2-12.3,7.2-18.5,8.1c-3.2,0.4-5.8-0.8-7.3-2.9c-0.6-1-1-2.5-2.6-2.1
		c-5.2,1.2-4.8-1.2-5.4-3.8c-0.9-4.1-4.9-5.9-10.2-5.4c-4.5,0.4-10.9-2.1-11.9,4.4c-0.4,3.9-4.3,4.3-7.3,2
		c-3.9-2.9-10.6-4.3-9.3-10.3c0.6-2.5-3.1-2.8-5.9-2.9c-5.4-0.1-8.9-2.9-9.2-6.1c-0.4-5,3.4-11.1-8.6-10.5
		c-2.9-6.3-9.9,11.3-14.4,11.4c-3.5,0.1-6.4,1.1-8.4-1.6c-2.3-3-2.2-5.6,2.3-7.9c2.2-1.1,6.2-4.1,3.7-5.1c-5.5-2.1-6.1-6.4-9.7-10
		c0.9,6.9-3.4,6.3-8.6,4.6c-1.2-0.4-2.3-0.5-3.5-0.9c-5.9-1.4-11.2-3.3-9.2-9.2c0.6-2-0.9-2.8-3.1-2.9c-2.2-0.2-4.3-0.4-6.2-1.4
		c-5.2-2.6-9.7-1.8-11.9,2.9c-1.5,3.3-3.2,3.3-6.1,1.3c-2.5-1.8-5.5-2.1-5.8,0.9c-0.4,4.6-4.2,6.1-9,7.5c-3.9,1.1-7.4,2.9-10.6,4.9
		c-6.7,3.9-19.9,22.3-22.5,16.4c-2.5-5.9-4.9-2.8-13.2-6c-8.1-3.1-17.9,24.1-24.3,18.2c-1.2-1.1-4.2-0.1-3.4,1.4
		c3.4,6.8-1.2,6.9-8,6.1c-1.8-0.2-3.7,0.8-5.7,1.3s-4.2,0.6-5.4-0.8c-2.8-3.8-8.6-4.1-12.6-6.3c-4.2-2.1-10-0.9-13.6-4.4
		c-3.4-3.5-8.3-3.3-11.9,0.1c-1.3,1.3-2.6,2-4.9,1.9c-11.1-0.4-21.6,1.5-33.1,3.8c-0.6,0.1-1.5-0.8-2.2-1.2
		c-4.2-2.6-21.9-3.3-27-1.5c-6.5,2.1-13.4,3.6-20-0.2c-4.2-2.4-8.6-3.3-12.6,1.1c-2.3,2.6-6.4,6.4-9.5,6.3
		c-6.8-0.1-14.2,1.6-20.6-1.4c-1.9-1-3.4-1.3-5.2-0.1c-1.8,1.2-2.8,2.5-1.6,4.4c0.6,0.9,2.3,1.5,0.9,2.9c-3.5-0.2-5.9-1.4-6.2-4.4
		c-0.1-1.2-0.7-3.6-2.5-2.1c-6.4,4.6-10,0.6-14.4-1.8c-1.2-0.6-2.5-1.4-4-0.8c-1.6,0.8-1.2,1.9-0.3,2.9c3.4,4.1-1.2,3.7-3.7,2.9
		c-5.2-1.2-10-2.9-14.8-4.8c-1.8-0.6-3.1-1.8-5.4-0.5c-4.6,2.4-6.7,0.1-8.3-2.6c-1.2-2-2.5-3.9-5.8-3.7c-6.8,0.5-13.6,1.2-20.5,2
		c-4.8,0.5-4.2,2.6-1.8,4.6c1.8,1.5,6.1,2.4,3.1,5.1c-2.9,2.5-5.8,0.1-8.4-1c-9-3.8-18.5-6.8-28.9-7.9c-0.4-1.2-0.7-2.6-2.9-1.1
		c-1.5,0-2.9,0-4.5,0c-0.7-2.1-2-2.8-4.5-1.1c-1.9-0.4-4-0.6-5.9-1c0-1.2,0.1-2.5-1.5-3.5c-4.2-3.6-8.6-0.2-12.5-0.4
		c-7.6-0.5-13.4,1.5-19.3,4c-1.5,0.6-3.2,1.2-4.9,0.6c-10-3.3-20.2-6.6-29.9-10.5c-2.5-1-3.9-2.8-7.4-1.8c-2.3,0.6-6.1,1-6.7-1.6
		c-0.6-2.1,2.3-4,4.9-4.3c4.3-0.5,6.5-1.4,6.5-5.1c0-2.6,2.5-1.1,4.2-0.4c6.2,2.5,11.2,1.8,15-2.9c1.6-2.1,4-3,7.3-3
		c4.3,0,6.8-0.8,3.9-4.6c-2.2-2.9,1.2-5.1,3.7-7.1c2.3-1.9,3.4-0.6,5.1,0.9c1.5,1.4,3.4,0.5,3.4-1c0.1-3,0.7-6.4-0.4-9.3
		c-1-2.6-3.9-5.5-8.7-2.4c-3.5,2.1-7.4,4-12.3,4.4c-3.4,0.4-5.9,2.5-7.7,4.9c-4.3,5.5-6.1,5.5-10.3-0.4c-1.8-2.5-3.2-2.8-7-1.8
		c-8.9,2.5-18.2,4.5-27.4,6.4c-1.5,0.4-4.3,0.4-4.9-0.2c-5.5-5.8-15.4-2.1-21.6-6.1C1.7,667.6,1.7,321.5,1.7,62.9
		c21.2-0.8,40.7-5.5,58.2-14.2c7.4-3.7,13.1-1.9,18.6,1.4c2.8,1.6,5.5,3.8,7.4,6.1c6.1,7,14.7,9.8,25.6,9.9
		c12,0.1,19.4-6.3,28.2-10.9c2.6-1.3,4.3-2.5,7.7-1.2c6.2,2.3,12.2,7.4,20,2.1c0.4-0.2,1.5-0.1,2.2,0c4.6,1,9,0.5,13.8,0.1
		c9.9-0.9,11.9,0.1,15.3,7.8c1.3,3.1,3.2,3.8,7,1.9c5.2-2.8,10.5-5.5,17.6-3.3c0.9,0.4,2.5-0.1,3.4-0.5c4.3-2.3,5.5-0.6,8.3,2
		c5.8,5.5,10.8,13,23.5,9.8c2.2-0.5,5.2,0.4,5.1,2.3c-0.4,4.6,2.8,5.4,8,5c1.3-0.1,2.8,0.6,4,1.4c5.2,3.1,11.1,4.4,17.6,4.8
		c3.5,0.2,7.4,1.1,10,3c2.5,1.9,5.2,2.5,8.6,1.4c7.8-2.5,14.4,2.1,21.8,2.8c4.6,0.4,4,5,5.4,7.9c1,2.1,4,5.8,6.4,3.9
		c5.1-3.8,9.2-2.1,14.1-0.9c2.9,0.8,5.1-0.2,7.3-1.5c8.6-5.4,13.1-5.1,21.1,0.5c0.7,0.4,1.6,1.2,2.3,1.1c7.7-0.5,16,3.6,23.2-1.8
		c1.5-1.1,3.7-1.4,6.2-0.6c7.6,2.1,22.4-1.6,28.5-6.3c8.3-6.4,10.5-16.4,21.5-21.3c2.5-1.1,1.8-2.9,0.3-4.9c-2.6-3.1-1.9-6.4,2-8.8
		c4.5-2.6,9.5-3.9,15.1-3.6c8.7,0.4,12.2,5.1,7.7,10.8c-2.2,2.9-3.1,5.9-2.2,8.9c1.3,4.6,5.2,5.6,10,2.9c4.9-2.8,10.2-5.1,14.5-8.5
		c3.1-2.5,7.4-3.7,12.2-2.5c3.2,0.8,5.7,0.4,7.6-1.9c2.8-3.1,6.5-4.9,11.9-3.3c2.5,0.6,5.4,0.1,8-0.5c9.3-2.1,17-0.8,24.7,4.6
		c13.1,8.9,29.2,14,46.3,17.5c16.3,3.1,31.1,8.2,42.7,18.3c16.1,14,36.6,23.2,61.6,25.9c0.4,1.2,0.7,2.6,2.9,1.1c1.9,0,3.9,0,5.9,0
		c0.7,2.1,2.2,2.8,4.5,1.1c15.7,1.8,31.4,1.8,46.6-1.9c3.5-0.9,5.2-0.1,4,2.9c-0.6,1.4,0.6,2.5,2.3,2.9c1.6,0.4,3.1-0.1,3.9-1.1
		c2.2-3.5,6.2-2.9,10.2-2.9c3.7,0,7.4,0,11.1,0c3.5,0,4.9-0.9,3.9-3.8c-1-2.9-1.6-5.9,0.6-8.6c5.4-6.8,25.1-10.5,33.7-6.1
		c5.9,2.9,11.5,6.3,16.9,9.6c5.4,3.5,11.2,10,20.3,3.6c0.6-0.4,2-0.4,2.8-0.2c4.5,1.4,9.3,1.1,13.9,1.3c5.5,0.2,12.8,2.6,14.7-4.8
		c0.4-1.9,4.3-4.8,6.5-4.8c7-0.1,7.4-4,8.7-7.1c1.6-3.7,4.2-6.3,9.3-7c2.2-0.4,3.9-0.6,3.1-2.8c-0.4-1.1-3.1-2.1-1.2-3.3
		c2-1.3,5.1-0.1,6.1,0.8c4.6,4.3,8.7,4.4,14.1,0.6c2.5-1.8,6.7-0.4,9.6-2.3c4.3-2.8,17-2,21.1,1.2c2,1.6,4.2,2.6,7,2.1
		c2.9-0.5,4.6-2.1,4.6-4.5c0-4.3,1.9-5.3,6.4-2.1c1.3,0.9,2.8,1.8,4.5,0.6c0.6-0.4,0.7-1.3,0.4-2c-0.3-0.9-1-1.6-1.5-2.5
		c-2-3.6-0.6-7.3,2.6-9c3.2-1.8,2.9,2.9,5.5,3.7c3.2,1,6.4,4.1,9.9,1.9c3.2-1.9-0.4-3.9-1.8-5.6c-0.6-0.9-1.2-1.8-0.3-2.5
		c1.6-1.3,3.1-0.4,4.6,0.4c3.4,1.6,8,3.9,10.2,0.5c2.3-3.5,5.9-5.4,9.7-5.4c4.9-0.1,10,1.3,15.1,0.4c0.1,0,0.3,0.4,0.4,0.4
		c8.3,3.9,15.8,9.4,27.1,6.5c1.3-0.4,3.4-0.5,4.3,0c8.4,5.1,18.8,2.5,28.2,4c3.7,0.5,6.4-0.9,8.3-2.8c1.8-1.8-0.6-3.5-1.8-5
		c-4.3-6-15.1-10-9.7-18.9c0.1-0.2-0.3-0.6-0.6-1c-3.7-4.6-0.4-4.8,4.3-3.7c1.8,0.4,3.4,0.4,4.6-0.8c1.3-1.4-0.3-2.4-1.5-3.3
		c-2.2-1.9-2-3.7,1.3-4.1c9-1.1,13.6-7.2,20.6-10.5c5.1-2.4,8.9-4.4,14.8-4.1c7.8,0.4,13.4-2,15.5-8c1-2.6,2.5-3.8,6.2-1.9
		c4.9,2.3,9.9,3,14.4-1c0.9-0.9,2.9-1.5,4.6-1.5c7.7,0.1,12.5-3.5,17.2-7.2c2.8-2.1,5.9-3.3,9.7-1.5c4.9,2.1,9.6,1.2,13.9-0.8
		c8.6-4,17.9-5.6,27.6-4.4c7.1,0.9,13.6-0.9,20.5-0.4C1316.4,5.3,1317.9,4.5,1318.2,3z"/>
	<path class="st1" d="M1926.8,301.2c-2-0.1-4.2-0.1-6.5-0.2c1.5-2.5,3.4-3.9,6.5-4.3C1926.8,298.1,1926.8,299.7,1926.8,301.2z"/>
	<path class="st2" d="M1826,120.4c7.4-1.6,14.8-1.6,22.2,0C1840.8,122.3,1833.4,122.3,1826,120.4z"/>
	<path class="st3" d="M1229.3,989.5c-7,1.6-13.8,1.6-20.8,0C1215.5,987.6,1222.3,987.6,1229.3,989.5z"/>
	<path class="st4" d="M1657.2,940.8c-4,1.6-7.8,1.6-11.9,0C1649.4,939.1,1653.3,939.1,1657.2,940.8z"/>
	<path class="st4" d="M1689.7,940.8c-4,1.6-7.8,1.6-11.9,0C1681.9,939.1,1685.8,939.1,1689.7,940.8z"/>
	<path class="st2" d="M130.6,971.7c-1,0.9-2.6,1.5-3.5,0.4c-1.2-1.5,1.6-2.3,2-3.7C130.7,969.3,130.6,970.6,130.6,971.7z"/>
	<path class="st2" d="M1814.2,118.3c2.3,0.1,5.4-0.6,6.1,2.1C1817.7,120.4,1814.9,121,1814.2,118.3z"/>
	<path class="st5" d="M1405.5,957.3c-1.6,1.5-3.9,1-5.9,1.1C1400.8,955.5,1402.8,955.8,1405.5,957.3z"/>
	<path class="st5" d="M1432.2,989.5c-2,1.4-4,1.4-5.9-0.1C1428.3,988.1,1430.2,988,1432.2,989.5z"/>
	<path class="st2" d="M986.4,977.3c-1.9,1.5-3.9,1.5-5.9,0.1C982.5,975.7,984.4,975.8,986.4,977.3z"/>
	<path class="st2" d="M1743.1,89.3c3.7-1.5,4,0.4,4.5,2.3C1745.5,91.7,1744,90.9,1743.1,89.3z"/>
	<path class="st2" d="M1806.8,117.3c1.6,0,3.4-0.1,4.5,1.1C1808.8,119.9,1807.4,119.4,1806.8,117.3z"/>
	<path class="st2" d="M740.6,131.7c1.6-0.1,3.4-0.1,4.5,1.1C742.7,134.3,741.4,133.8,740.6,131.7z"/>
	<path class="st2" d="M140.9,973.9c-1.6,0.1-3.4,0.1-4.5-1.1C138.9,971.2,140.2,971.7,140.9,973.9z"/>
	<path class="st4" d="M1635,941.9c-1.2,1.2-2.8,1.1-4.5,1.1C1631.2,940.8,1632.6,940.2,1635,941.9z"/>
	<path class="st5" d="M1454.4,991.7c1.2,1.1,0.1,1.6-1.2,1.8c-1.5,0.1-1.8-0.9-1.9-1.8C1452.3,991.7,1453.3,991.7,1454.4,991.7z"/>
	<path class="st2" d="M1760.9,101.6c1.9,0.1,2.8,0.8,2.9,2.1C1762.1,103.7,1761,103.1,1760.9,101.6z"/>
	<path class="st2" d="M1765.3,103.9c1.9,0,2.8,0.8,2.9,2.1C1766.5,106,1765.4,105.3,1765.3,103.9z"/>
	<path class="st2" d="M1800.8,116.1c1.2,0,2.3,0.2,2.9,1.1C1801.6,118.8,1801.1,117.4,1800.8,116.1z"/>
	<path class="st2" d="M731.8,130.6c1.2,0,2.3,0.2,2.9,1.1C732.5,133.1,732.2,131.8,731.8,130.6z"/>
	<path class="st2" d="M148.3,975c-1.2,0-2.3-0.2-2.9-1.1C147.6,972.4,147.9,973.7,148.3,975z"/>
	<path class="st4" d="M1626.1,942.9c-0.7,0.9-1.8,1.1-3.1,1.1C1623.5,942.8,1623.9,941.4,1626.1,942.9z"/>
	<path class="st5" d="M1441,990.6c-1,1-2,1-2.9,0C1439.1,989.5,1440.2,989.6,1441,990.6z"/>
	<path class="st2" d="M1001.2,976.2c-1,1-1.9,1-2.9,0C999.3,975.2,1000.2,975.2,1001.2,976.2z"/>
	<path class="st6" d="M1070.8,979.5c-0.7,0.8-1.8,1.1-2.9,1.1C1068.2,979.2,1068.6,978,1070.8,979.5z"/>
	<path class="st6" d="M1101.9,980.6c-1.2,0-2.2-0.2-2.9-1.1C1101.2,978,1101.6,979.2,1101.9,980.6z"/>
	<path class="st7" d="M524.5,57.4c5.4-0.2,9.6,1.4,9.5,4.1c-0.3,4.6-6.5,4.9-11.2,5.5c-3.5,0.4-7.4-1-6.8-4.4
		C516.5,58.5,521,57.8,524.5,57.4z"/>
</g>
</svg>
