<?xml version="1.0" encoding="utf-8"?>
<!-- Generator: Adobe Illustrator 22.1.0, SVG Export Plug-In . SVG Version: 6.00 Build 0)  -->
<svg version="1.1" id="Layer_1" xmlns="http://www.w3.org/2000/svg" xmlns:xlink="http://www.w3.org/1999/xlink" x="0px" y="0px"
	 viewBox="0 0 1304.6 733" style="enable-background:new 0 0 1304.6 733;" xml:space="preserve">
<style type="text/css">
	.st0{fill:#FEFED7;}
	.st1{fill:#FEFED8;}
	.st2{fill:#FEFEDD;}
</style>
<g>
	<path class="st0" d="M1302.8,61c0,222.8,0,404.6,0.1,667.4c0,3.7-0.8,4.6-4.6,4.6c-430.3-0.1-860.6-0.1-1290.8,0
		c-3.7,0-4.6-0.8-4.6-4.6C3,503.6,3,278.8,3,54c6.8-6.5,15.6-10.7,21.2-18.6c1.2-1.6,2.7-1.3,4.5-0.6c4.1,1.7,7.3,4.5,10.4,7.6
		c1.5,1.6,4.3,3.2,4.8-0.4c0.7-5.1,4-4.3,6.9-3.8c2.4,0.4,4.7,1.6,7,2.7c1.8,0.8,2.5,1.1,3.5-1.4c1.9-4.5,6.4-5.7,10.9-6.5
		c2.3-0.4,3.9,1.4,3.6,3.2c-1.2,6.5,4.3,10.9,4.6,17c0.2,3.1,2.5,4.6,5.1,1.8c3-3.3,7.8-3.7,10.6-7.2c1.2-1.4,3.1-0.7,4.6,0.1
		c3,1.6,5.6,1.6,8.1-1.1c2.5-2.8,4.6-1.2,5,1.4c1.2,8,7.7,12.2,12,18c1.9,2.6,4.9,3.3,8.1,2.7c8.8-1.6,8.8-1.6,9.2,7.6
		c0,0.8,0,1.7,0.2,2.5c0.4,1.5,1.5,2.5,3,1.8c5.5-2.9,8.6,1.5,11.9,4.1c2.8,2.3,5.6,3.8,9.2,4.3c6.2,0.7,12.1,2.7,16,8
		c1.8,2.4,3.6,2.3,5.5,0.9c4.3-3.3,8.4-2.2,12.5,0.3c2.6,1.6,4.6,4.8,8.5,2.2c1.1-0.7,2.3,1.1,2.9,2.3c1.6,3.1,3.4,6,3.3,9.8
		c-0.1,3.6,1.9,6.7,4.3,9.3c1.3,1.4,3.2,2.1,3.5-0.7c0.6-5.7,3.6-5.5,7.6-3.4c1.6,0.8,3.3,1.5,5.1,2c2,0.7,4.3,0.7,5.4-1.3
		c1.9-3.6,4.7-4.9,8.6-4.4c1.3,0.2,2.3-0.5,2.3-2c0.1-3.7,2.1-2.8,4.4-1.9c3.1,1.2,4.6,3.8,5.9,6.5c1.7,3.4,3.7,5.5,7.8,3.7
		c1.5-0.6,3.6-0.8,4.8,0.4c3.9,3.7,6.9,1.5,9.9-1.1c1.5-1.3,2.9-2.7,4.4-4.1c0.9-0.8,2-1.8,3-0.7c4.5,5,8.6,3.6,12.8-0.3
		c0.6-0.5,1.9-0.5,2.9-0.4c3.2,0.3,5.7-1.4,8.4-2.7c5.3-2.6,5.7-8.8,9.5-12.3c2.5-2.3,3.2,20,3.5,16.6c0.4-4.5,1-8.8,6.4-11.3
		c6.8-3.1,8.9-11.1,5.5-17.9c-1.8-3.6-0.9-6.7,0.8-9.9c5.1-9.2,13.2-9.5,21.6-8.1c3.4,0.6,5,3.5,5.4,7c0.6,5.1-1,9.6-3.3,13.8
		c-2.5,4.5-2.1,8.9-0.3,13.4c2.5,6.1,4.5,6.6,9.2,2c5-4.9,9.8-10,14.9-14.8c2.8-2.7,6-4.9,10.3-3.5c4,1.3,6.4,0.3,8.4-3.6
		c2.8-5.5,5.9-6.3,11.8-4.3c2.2,0.7,4.6,1.3,6.3-1.1c0.8-1,1.8-1.4,3.1-1.3c7.5,0.3,12.4-5,17.6-8.9c5.3-3.9,10.1-8.7,15.7-12.2
		c3.6-2.2,6.8-6.2,11.3-5.8c8.6,0.8,17.3,0.1,25.7,2c4.7,1,6.2,0.1,6-4.7c-0.2-3.8,1.5-5.4,4.9-6.2c6.9-1.7,12.9-5.3,18.3-9.8
		c5.7-4.8,10.6-4.8,16,0.2c1.3,1.2,2.3,2.8,4.6,2c6.8-2.3,12.6,1.5,13.2,8.6c0.4,5.2-0.8,10.2-2,15.2c-1.1,4.7-3.9,8.8-5.3,13.4
		c-0.8,2.6-1.5,5.5,0.4,7.6c7.4,8,12.6,18,22.8,23.2c1.4,0.7,3.1,2.1,3,3.8c-0.6,6.2,3.9-15,6.6-10.3c2.6,4.6,6.9,8.2,7,14.5
		c0.1,5,7.9,6.9,11.3,3.3c2.1-2.1,4-2.7,5.4,0.5c1.5,3.5,4.3,4.5,7.6,4.6c2.2,0.1,3.6,0.9,5.2,2.5c3.1,3.2,11.7-1.3,14.5-3.8
		c2.6-2.3,6.2,16.8,8.1,13.7c0.8-1.2,1.9-1.4,3-0.4c1.4,1.2,3.1,0.9,4.7,1.1c2.8,0.3,5.9-19.6,8-17.7c7,6.5,7.1,14.2,0.6,21.4
		c-3,3.3-4.4,7.3-3.6,11.5c1,5.1,2.6,9.9,0.9,15.2c-0.6,1.9,0.7,3.8,2.7,4.1c1.9,0.3,2.9-1.5,3.1-3.2c0.3-2.2,1.4-4.2,3.6-4.1
		c5.7,0.1,11.6-1.5,17.2,1.1c1.8,0.8,2.9,0,4.1-0.8c1.1-0.7,1.5-2,0.7-3.1c-2.2-2.6-1.4-5.7-1.5-8.6c-0.2-4.7,0.5-9.4-2.4-14
		c-2-3.2,0.5-6.5,4.5-6.8c2.5-0.1,4.9-0.1,7.4-0.6c13.2-2.9,24.7,0.9,33.6,10.6c5.3,5.9,10.3,12,16.4,17.3c2.9,2.5,5.4,2.8,7.5-0.4
		c2.1-3.1,4.7-3.4,7.8-2.5c4.5,1.4,9.8-0.7,13.8,3.1c0.2,0.2,1.2,0,1.3-0.3c1.5-2.8,3.4-1.8,5.5-0.7c1.3,0.7,2.1-0.1,2.9-1.1
		c1.6-1.8,1.4-3.9,1.8-6c0.8-4.2,3.2-7.9,6.7-10c2.8-1.7,3.5,2.7,6.8,4.3c-2.1-5.6,1.1-9.7,1.7-14.4c0.8-5.9,2.4-11.6,10.4-11.4
		c2.8,0.1,2.6,17.8,2.1,16c-0.4-1.4-1.4-2.6-2.1-3.9c-0.6-1.1-1-2.2-0.1-3.3c1-1.2,2.1-0.4,3.2,0.1c3.8,1.9,8.2,3.3,8.8,8.6
		c0.1,1,1.2-17.9,2.5-18c0.9,0,1.1-0.9,1-1.5c-0.6-6.3,4.3,13.7,8.3,13.1c2.5-0.3,4.5-0.9,6-2.9c4-5,8.2-5.6,13.1-1.3
		c2.1,1.8,3.3,2,5.4,0.1c1.7-1.6,3.7-1.6,2.9,1.7c-0.7,2.9,1.4,3.9,3.2,4.9c1.9,1.1,3.5-0.2,4.8-1.6c1.7-1.8,2.4-3.8,2.6-6.3
		c0.1-1.8-1.1-4.3,1.3-5.4c2.3-1,3.5,1.2,5,2.5c1.3,1.2,2.6,14.1,4.6,12.4c2-1.6,0.5-3.4-0.3-4.9c-3.1-6.1-1.9,8.1,1,2.3
		c0.5-1,0.8-2.4,2.3-2.1c1.3,0.2,0.9,1.6,1.1,2.5c1.2,4.6,3.3-12,8.5-10.6c4.3,1.1,4.9-0.8,4.2-4c-0.7-2.9-2.1,14.4-3.2,11.7
		c-0.9-2.4-0.4-4.1,2.5-3.9c1.5,0.1,2.2,1.8,3.1,3c1.8,2.4,4.3,3.2,7.1,2.4c2.6-0.7,3.6-2.7,3.7-5.3c0.1-1.9-0.6-4.2,1.9-5.1
		c2.6-0.9,2.6,2.6,4.6,3c0.4-0.8,0.6-1.7,1.1-2.2c1.1-1.2,2-3,3.9-2.7c2.1,0.3,1.3,2.4,1.5,3.7c0.2,1.4,0.7,2.7,2.3,2.8
		c1.6,0.1,1.5-1.5,2-2.4c0.8-1.6,0.6-4.5,3.5-4.1c2.3,0.3,3,2.3,3.3,4.4c0.2,1.4,1.2,2.9,2.5,2.9c4-0.1,6.2,2.9,9,4.8
		c3.4,2.3,7.2,3.5,10.9,2.4c6.2-1.8,11.4-0.4,16.2,3.5c1.7,1.4,3.7-16.6,6.2-17.8c4.6-2.2,9-1.2,13.6,0.1c4.4,1.2,8.3,16.6,7.5,12.2
		c-0.8-4.3-4.9-6.5-6-9.9c-1.7-5.4-4.5-9.9-7.2-14.6c-1.1-2-1.3-4.3,0-6.2c2-3.1,1.5,10-0.1,7.1c-0.9-1.7-2.2-3.5,0.1-5.2
		c2.3-1.7,3.7-0.1,5.1,1.3c2.8,3,3.9,0.8,4.9-1.6c0.6-1.5-0.2-2.5-1-3.6c-4-5.1-3.6-6.1,2.7-8.3c1.6-0.6,3-1.4,4.1-2.7
		c4-4.7,6.9-10.6,13.5-12.6c0.7-0.2,1.5-1.1,1.6-1.8c1.4-7.3,6.9-7.2,12.3-6.5c8.7,1.1,14.2-4.6,15.9-12.9c1.1-5.7,1.2-5.7,6.3-3.1
		c7.3,3.7,7.3,3.7,13-1.7c0.9-0.8,2.3-0.9,3-1.5c2.9-2.3,7.1-0.7,9.6-3.3c3.4-3.4,7.1-6.5,9.9-10.6c2.7-3.9,6.2-4.4,9.7-1.1
		c2.5,2.3,4.7,1.9,7.7,1.2c4-1,5.6-5,9.3-6.3c8.9-3.4,17.8-4.7,27.3-3.2c4.7,0.7,10.5,1.4,14.4-0.5c7-3.4,13.7-0.9,20.2-0.4
		c9,0.7,18.1,1.7,27.2,2.2c5.1,0.3,9.9,1,14.3,3.5c4.3,2.4,8.7,4.1,13.8,3.7c1.3-0.1,2.6,0.3,3.9,0.7c11.2,3.6,20.7,10.9,32.1,14.1
		c1,0.3,2.3,1.1,2.7,2C1284.8,52.6,1296.9,52.9,1302.8,61z"/>
	<path class="st1" d="M395.5,80.9c-3.9,0-6.6-3-6.5-7.1c0.1-4,4.7-7.4,10.1-7.6c3.1-0.1,7.9,4.4,7.7,7.3
		C406.7,76.4,399.9,80.9,395.5,80.9z"/>
	<path class="st2" d="M501.8,43.2c-3.2,5.6-6.5,6.3-11.7,2.5C494,44.8,497.5,44.1,501.8,43.2z"/>
</g>
</svg>
