<?xml version="1.0" encoding="utf-8"?>
<!-- Generator: Adobe Illustrator 22.1.0, SVG Export Plug-In . SVG Version: 6.00 Build 0)  -->
<svg version="1.1" id="Layer_1" xmlns="http://www.w3.org/2000/svg" xmlns:xlink="http://www.w3.org/1999/xlink" x="0px" y="0px"
	 viewBox="0 0 2755.6 1343" style="enable-background:new 0 0 2755.6 1343;" xml:space="preserve">
<style type="text/css">
	.st0{fill:#EDEDED;}
	.st1{fill:#FDFDFD;}
	.st2{fill:#1B1B1B;}
</style>
<g>
	<path d="M2756.4,890.2c0,0.8,0,1.6,0,2.4c-4.1,3.9-10.3,5.1-10.4,13.1c-0.3,16.9-0.9,16.9-18,10.6c3.2,5-2.2,10.9,5.3,13.9
		c15.3,6,1,13.8-0.1,19.7c-1.3,6.5-8.9,6-13.5,1.2c-4.6-4.8-10-6-12.8-0.5c-2.9,5.8,4.6,6.3,8,7.5c9,3.1,5.5,11.1,5.3,16
		c-0.3,5.5-6.7,7-12.4,5.6c-3.8-0.9-7.5-3.2-11.6-2.1c-2.5,0.7-6.3,0-6.5,3.8c-0.2,2.8,2.5,3.8,4.8,4.4c2.6,0.7,5.2,0.4,5.2,4.8
		c-0.1,6.4,7.9,13.5,14.1,14.4c7.1,1.1,13,6.5,13.7,12.2c0.9,7-5.8,8.3-13,5.9c5.9,5.2,1,14.7,9.8,18c3.2,1.2,1,3.8-1.7,4.7
		c-2.9,1-6.4-1-8.9,1.7c4.3,11.2,3.7,12.7-6.5,17.4c-14.7,6.9-17.9,15-11.1,28.8c1.2,2.5,0.7,6.4-1.1,5.9
		c-11.6-3.1-18.5,1.1-22.5,12c-0.4,1.2-4.4,1.6-6.7,1.4c-8.4-0.7-11.5,3.4-13.7,11.3c-5.1,18.6-8.9,20.9-26.8,21
		c2.6,13.4-2.5,19.8-15.5,16.5c-9.6-2.4-14.9,3.5-21.9,6.6c-1.6,0.7-1.9,2.2-1.9,4c0.1,3.4,7.4,7.8-0.6,10c-4,1.1-8.7,0.3-13-0.1
		c-2.2-0.2-4.5-5-6.3,0.1c-1.7,4.7-0.5,11.7-9.2,9.4c-0.2,10.6-8.7,13.2-15.5,18.6c-3.2,2.5-13.5,6-8.4,15.2c0.1,0.2-2.1,2-2.1,1.9
		c-10.3-9.9-15.5,14.8-26.3,4c-0.9-0.9-4,3.4-3.5,6.4c1.9,12.3-5.8,14.6-15.2,14.1c-6.3-0.4-10.6,0.8-13.2,7.3
		c-1.5,3.7-7.7,6.8-9.8,4.5c-11.3-12.6-22.8-3.9-33,0c-8.4,3.2-15.5,4.9-24,2.1c-4.1-1.3-8.9-2.3-13-1.4
		c-15.4,3.3-20.9-8.1-26.4-18.1c-2.7-4.9-5.8-7.8-10.6-8.2c-7.4-0.7-13.6-4.4-20.4-6.6c-7-2.2-6.2-5.4-5-11.4
		c2-9.8,11.2-14.8,13.9-23.3c1.9-5.9,10.5-11.7,6.7-15.9c-4.2-4.7-12.8-0.1-19.2,1.6c-31.6,8.4-63.2,16.2-96.3,14.4
		c-6.8-0.4-13.4,2.1-19.7,4.7c-6,2.4-12.3,4.5-18.7,3.7c-18.8-2.2-37.3,1.7-56,1.5c-24.3-0.2-48.9-2.2-72.8,4.8
		c-3.7,1.1-5-0.4-7.4-3.4c-8.9-11.2-16.7-11.4-27.9-2.3c-12,9.7-24.8,16.7-41.1,17.2c-10.6,0.3-17.7,0.6-16.1-13.6
		c0.8-7.6-7.7-12.1-11.8-7c-7.5,9.3-17.9,18.1-14.6,32.8c-5,0.2-9.6-0.7-13.5-3.6c-3-2.2-6-4.8-9.5-1.7c-3.3,2.9-6.9,7.2-5.4,11.3
		c3.8,10.8-3.5,14.9-10.6,14.9c-11,0.1-15.2,9.7-15,14.5c0.4,9.2-3.9,4.7-6.6,4c-29.6-6.9-59.3-7.2-87.4,4.2
		c-27.6,11.3-54.5,24.7-80.3,39.6c-11.4,6.6-20.5,8.1-32.3,3.9c-27.8-10.1-56.5-11.6-85.1-5c-14.9,3.4-28.5,1.9-42.1-3.8
		c-32.2-13.4-65.7-17-100-11.2c-8.1,1.4-15.6,0.8-23.6-1.1c-47.7-10.9-92.2-4.9-131.1,27.2c-2.8,2.3-5.3,4.3-9.2,4.9
		c-14.8,2.4-28.7,7.1-44.6,5.9c-9.6-0.7-20.5-3.4-30.8,1c-8.8,3.8-17,3.2-19.7-9.1c-0.9-4.2-5.5-5.4-10-3.9
		c-2.2,0.7-4.9,3.1-6.6,0.9c-8.5-11.1-22.6-6.7-33.3-12.2c-6.8-3.5-12.5-10.7-22.5-9c-6.7,1.2-16.7,3.7-20.5,1
		c-11-7.9-21.8-9.9-34.4-7.4c-3.2,0.7-16.1-9.7-16.9-13.2c-1-4.2-3.6-6.4-7.6-6.2c-4.9,0.3-11.2-2.7-14.4,2.4
		c-2.1,3.3-2.6,9.2-7.3,6.5c-4.3-2.4-11.8-3.4-11.6-10.8c0.2-6.2-3.4-7.2-8.2-7.7c-7.1-0.8-10.7-4.4-8.7-12c1.1-4.2,0.2-8.9-4.1-9.7
		c-7.8-1.5-15.2-6.7-23.9-2c-3.8,2.1-5.8-2-8-5.2c-2.8-4.2-0.4-5.2,2.6-7.1c6-3.7,8.5-7.5-0.2-11.5c-2.8-1.3,0-6.5-3.8-8
		c-5,6.1-4.9,6-15.5,2.9c-5.2-1.5-11.2-3.5-9.5-9.8c1.3-5-1.8-4-3.6-6.1c-11.5-12.5-20,9.9-30.6,2.2c-0.2,0.3-0.6,0.6-0.7,1
		c-1.5,15.2-17.9,12.1-25.4,20.4c-3.4,3.8-20.3-2.8-21-8.1c-3.6-26.7-30.5-21.5-44.8-36.5c-0.8,6.5,3,9.6,0.2,14.1
		c-6.3-4.7-14.6,3.9-19.4-1c-6.1-6.2-14.1-7.7-21-10.7c-5.8-2.5-13.7-11.1-18-6.1c-7,8.3-14.1,4.2-20.3,3.2
		c-9-1.5-19.4,0.1-26.5-3.3c-10.4-5-20.2-2.6-29.4-1.7c-8.2,0.8-15.6,5.3-23.6-1.1c-4.3-3.4-8.4-2.8-12.2,2.3
		c-7.9,10.7-20.7,11.2-30.4,7.4c-9.6-3.8-10.6,0.5-12.5,7.4c-3.8-6.2-4.5-6.9-10.8-5c-5.3,1.6-9.5-7.3-14-1.8
		c-5.3,6.4-11,3.5-14.6,0.5c-7.7-6.5-21.5,0.7-26-12.1c-0.1-0.3-1.5-0.3-2.2-0.1c-8.6,2.1-17.9,0.2-25.7,4.2
		c-1.1,5.5,9.2,5.7,4.5,11c-3.8,4.3-7.8-1.5-11.8-2.5c-0.4-0.1-0.8-0.3-1.1-0.5c-16-10.5-36.6-7.4-53.1-18.8c-5.3-3.6-19,0-27.8,5
		c-4.2,2.4-8,2.6-12.5,0.7c-13.3-5.5-25.6-13.6-40.5-14.7c-1.8-0.1-3.6-2.2-2.8-3c5.1-4.7,13.3-13.9,15.4-12.7
		c14.6,8.3,19-11.8,30.6-9.5c0.1-1.1,0.4-2.1,0.4-3.2c0.4-12.6,1.7-13.4,13.1-8.4c0-4.1,0.4-8.1-0.1-12.1c-0.5-3.7-4.2-8.8-6.3-7.2
		c-8.4,6.2-22.1,3.6-26.8,15.1c-2.6,6.3-6.4,5.2-8.3,1.4c-4-8-8.7-6.6-15.4-4c-7.4,2.9-15.4,4.2-23.1,6.3c-3.2,0.9-5.6,0.1-8.8-1.2
		c-9.8-3.8-19.3-10.3-30.8-5.2c-3.1,1.4-7.2,0.6-10.6,1.6c-12.6,3.6-25.2-1.4-38,0c-7.5,0.8-14.8-2-14-13.1c1-15,5.2-28.6,12.5-41.5
		c8.7-15.6,9-23.9-3.6-31.8c2.2-4,5.7-6.6,9.6-8.7c6.2-3.3,7.8-7,0.6-11c-2.1-1.2-5-2.2-4.2-5c0.9-3.3,4.1-3,7.1-2.9
		c10.4,0.4,4.7-4.5,2.6-8.2c2.4-3.5,5.8,2.6,7.9-0.2c-4.5-12.5,9.2-12.5,12.9-19.2c3.7-6.5,7.8-15.9,19.2-14.9
		c-3.8-5.6-11.1-0.5-12.1-5.8c-0.9-4.8,6.1-5.2,8.4-8.9c2.5-4,10.7-6.7,8-11.3c-4.6-8.2-0.8-13.4,2.7-19.7c2-3.6,4.9-7.6,1.2-12.3
		c-4.5,3.5-8.8,6.6-15.2,4.8c-5-1.4-9.1,0.4-14.3,3c-6.3,3.2-15.1,1.1-18.4,10.6c-0.2,0.6-3.6,1.2-4.5,0.5c-4-3.1-8.4-1.3-12.5-1.9
		c-10.2-1.5-19.6-5.9-20.7-17.3c-0.7-7.4-3-8.7-9.3-7.3c-1.8,0.4-4-0.1-5.8-0.8c-17.1-6.7-33.8-14.3-52.9-15
		c-14.7-0.5-20.3-10.8-15.5-25.3c1.5-4.4,5.5-8.4,1.7-13.4c-5.7-7.4-4.3-16-3.1-24.1c0.6-4.5-0.3-7-4-8.5
		c-9.6-3.9-19.7-6.5-26.4-15.5c-2.3-3.1-5.5-2.4-8.6-0.8c-5.6,2.8-11.7,2.4-17.7,2.6c-4.1,0.1-8.9,0.1-9.5-5.1
		c-1.4-12.3-5.1-8.9-12-3.2c-9.5,7.7-21.5,13.4-33.2,7.5c-9.8-4.9-12.5-15.4-13.4-27.2c-0.7-9,1.7-20.1-9-27.8
		c-3.8-2.7-9.3-12.7-5-20.1c3.7-6.3,5.4-12.9,7.2-19.6c4.1-15.2,13-29.3,26.5-34.3c12.7-4.7,16.8-8.2,10.4-20.2
		c5.8-1.6,10.8-3.1,15.8-4.4c3.2-0.8,6.6-1.6,6.3-5.8c-0.5-7,3.6-7.9,9.1-7.8c7.7,0.1,7.2-3.4,3-7.8c-1.9-2-4.3-3.5-6.6-4.9
		c-2.4-1.4-5.9-1.8-6.2-5c-0.3-3.7,3.6-3.7,5.9-4.7c10.6-4.8,9.1-22,23.5-22.7c0.1,0,0.3-0.7,0.4-1.1c2.8-11.1-8-22.4-20.8-22
		c-2.4,0.1-4.9,2.7-7.5-0.6c1.1-0.8,2-1.9,2.9-2c5.2-0.3,10.4-0.2,15.5-0.5c4-0.3,10.8,2.4,7.5-6.6c-0.3-0.8,1.4-2.6,2.6-3.6
		c9.6-8.2,9.5-9.4-2.9-16.8c18.4-3.5,11.1-28.3,29.5-31.4c0.6-0.1,1.5-2.1,1.3-3c-1.6-7.9,1.7-15.4,1.6-23
		c-0.2-10.8,9.4-18.6,19.2-14.7c5,2,11.2,4.2,14.7,0.8c4.5-4.3-5.8-10.9,0-16.7c-9.9-3.1-15.7-13.9-26.8-14.4
		c-13.2-0.6-15.3-2.9-11.9-15.9c0.7-2.7,2.6-6.9-0.6-7.1c-11.5-0.7-21.7-4.9-32.4-7.9c-5.2-1.5-13.1,1.6-20.8-1.5
		c-5.8-2.3-9.8-3.3-10.5-10.3c-0.3-3.3,1.1-8.7-5.1-9.2c-10-0.8-10.7-9.3-12.6-16.2c-0.5-1.8,0-3.3-1.4-5.6
		c-5.1-8.3-6.1-19.4-17.1-23.6c-0.3-0.1-0.4-2.6,0.1-3c7-5.3-5.6-16,5.5-20.1c-2.9-10,0.5-18.1,7.4-25.4c1.3-1.4,2.3-3.6,0.9-5.5
		c-4.3-5.7-3.2-12.9-5.2-19.3c-2.7-8.8-0.5-19.4,8.9-25c4.6-2.7,6.2-4.2,2-8.4c-2.7-2.6-2-6.1-0.6-9c2.5-4.9,5.1-0.5,7.8,0.1
		c5.3,1.3,9.1-2.3,10.1-6.2c3.3-13.2,17-13.5,24.3-14.2c14.3-1.4,17.3-15.6,28.6-18.8c0.9-0.3,2-2.9,1.8-4.2
		c-2.8-17.6,9.8-18.5,21.7-20.4c6-1,15.7,1.4,10.3-10.8c-1.2-2.6,2-2.9,3.7-3.3c15.7-4.1,24.3-17.5,34.9-27.8
		c4.9-4.7,9.1-8.3,15.6-9.4c16.3-2.8,32.1-7.3,46.1-16.2c6.7-4.3,12.8-4.4,20.3-2.8c36,7.5,70.9,4.2,103.8-13.2
		c14.5-7.6,21.8-6.1,32.3,7.3c4.3,5.4,9.5,9,16.1,11.7c16.2,6.8,28-1.9,39.5-10.3c7.1-5.3,12.7-4.9,19.2-0.4
		c2.2,1.5,5.1,5.2,7.1,3.1c8.8-9.6,19.7,0.8,29.1-3.6c2.9-1.4,7.8,0,9,4.1c3.7,12.3,10.4,7.5,18.6,5.1c9.3-2.7,20-7.5,27.8,5.6
		c4,6.7,11.7,12.5,21.7,8.5c1.1-0.5,4.2,0.6,4.2,1c0.4,11.3,10.6,9.1,16.7,11.4c13.9,5.3,27.1,12.7,43.2,11.1
		c6.4-0.6,17,1.6,19.2,5.9c5.2,10,9.4,15.1,21.8,11.9c4.5-1.2,9.6,0.8,15.2-2.3c6.2-3.4,14.7-9.1,20.8,1.9c1.4,2.6,5.3,1.3,7.6,2.2
		c9.5,3.6,17.4-3.9,25.8-3.5c14.7,0.6,27.7-1.3,36.6-13.7c5.6-7.8,9.2-17,18.1-22.1c2.7-1.6,2.3-4.5,0.5-7.3c-4.6-7.3,0.2-11.5,6-14
		c7-3,15.1-5.3,21.6,0.4c6.1,5.4,0.7,10.8-1.8,16.1c-2.2,4.5-1.1,8.7,2.6,12c3.7,3.3,6.8,0.2,9.5-2c18.5-14.9,40.6-19,63.2-22.5
		c7.5-1.1,13.3,0.9,18.8,5.3c17.3,13.8,37.1,21.7,58.5,26.5c13.7,3.1,27.7,8.3,37,18.5c35.6,38.8,80,46.9,129.3,41
		c4.7-0.6,12.4-7.1,13.3,4.6c0,0.4,2.6,1.3,2.8,1c8.6-9.9,20-4.1,31.1-4.9c-4.5-11.7-0.6-19.6,10-24.4c9.3-4.3,18.2-3.7,27.5,0.7
		c9.5,4.5,16.2,12.9,25.3,17.9c2.7,1.5,5.2,5.1,8.4,2.6c7.8-6.2,15.9-2.3,24-1.8c6.6,0.4,11.8,0.4,17.3-7.1
		c5.6-7.6,16.5-11.5,19.4-22.3c0.1-0.5,1.4-1,2.1-1c9,0.5,7.7-4.5,3-11.9c5.9,2.4,9.9,3,12.3,5.2c3.6,3.3,3.5,4.9,9.7,0.8
		c9.8-6.5,25.9-12.6,35.4-4.6c13.5,11.5,11.4-1,14.9-6.2c4-1.3,6.4,5.2,11.5,1.9c-3.3-6.5-4.8-13.2,2.4-19.3
		c3.3,6,7.5,12.4,14.4,9.3c5.3-2.4-3.9-6.9-0.9-11.8c6.3,1,14.9,10,18.2-3.8c0.4-1.8,2.7,0.1,3.9,0c6.7-0.5,22.6,0.3,27.7,4.1
		c10.1,7.3,22.6,1.2,32.1,6.2c9.8,5.2,19.7,1.1,29.2,3.6c1.7,0.4,4.7-1.4,6-3.1c2.1-2.8-0.2-5.6-2.2-7.1c-5.1-3.7-6.3-10-10.6-14.3
		c-4.9-4.9,1.8-11.3-1.4-17.6c-1.1-2.1,6.4,3.2,10.8-0.1c-3.9-6.1-3.5-10.8,5.3-12c2-0.3,3.7-3,5.7-4.2c9.6-6,17.5-15.9,30.9-13.6
		c2.1,0.4,5.6-0.4,6.6-1.9c6-8.9,13.2-9.3,24-10.2c17.7-1.4,31.7-20.1,52.3-15.7c0.3,0.1,0.8-0.2,1.1-0.5c8.3-5.9,18-7.2,27.5-6.4
		c15,1.3,29.7-1.4,44.6-1.1c51.1,1.1,98.9,13.2,142.1,41.2c6.9,4.5,13.4,8.2,22,7.7c3.7-0.2,8.6,0.4,8.5,6.1c-0.2,6.5,4,7.4,8.7,6.7
		c4.7-0.7,8.6,1,12.8,2.3c8.8,2.7,17.1,3.7,26.9,1.5c11.7-2.7,24.1-7.1,36.4-1.4c1.6,4.7,3.3,2.4,5,0.1c5.4-0.1,10.4,2.5,16.3,0.5
		c5.9-2,12.8-0.4,18.1,3.8c11.1,8.9,25,10.2,37.6,15c8.6,3.3,21,0.1,25.1,13.8c1.3,4.4,8.6,10.6,14.7,6.4
		c13.7-9.3,15.5-9.5,24.3,4.5c7.3,11.6,9.1,11.6,20.9,3c3.9-2.8,9.6-8.5,13.3,1c-2.8,3.2-4.5,8,0.2,9.2c6.3,1.7,3.1-6.4,6.2-8.7
		c4.4,2.6,9.5-2.9,14.4,2.2c33.7,35,76,42.8,122.1,37.1c6.6-0.8,9.7,1.8,14.2,5.6c11.8,9.9,18,27.5,37,28.2c2,0.1,4.3,2.1,5.8,3.8
		c1.9,2.1,2.9,4.3-0.5,6.9c-9.8,7.3-8.2,18.7-9.5,29c-2.4,1.5-4.8,3-0.2,4.8c4.7,11.1-9.7,10.4-11.3,17.2c3.7,5,12.3,0.7,13.7,8.5
		c-1.9,0.4-5,0.3-5.3,1.2c-0.7,2,1.8,2.8,3.3,3.8c-2,6.6-5.5,11.9-12.3,14.5c-1,0.4-1.9,0.7-2.9,1.1c0.9,0.5,1.9,1,2.8,1.5
		c4.5,6.3,8.2,14.5,18.4,8.6c0.5,0.5,0.9,0.9,1.4,1.4c-2.6,9.7-10.9,12.4-22,15.3c8.3,2,14.3,2.8,17.7,8.2c0,1.6,0,3.2,0,4.8
		c-1.8,1.7-3.1,5.8-2.7,5.8c8.5-0.7,7.2,9.8,13.2,11.3c13.3,3.5,7.7,7.7,1.1,13.1c-3.5,2.9-6.9,5.1-11.5,5.8c-2.9,0.5-7.3-0.3-7.2,4
		c0,3.4,3.7,5,6.8,5.9c14.1,4.1,14.5,18.2,20.7,28c-1.5,0.2-3.4,0.6-3.1,2.3c0.3,1.9,1.9,1.9,3.3,0.7c3.4,4.7,5.9,10.8,10.4,13.9
		c7.4,5.2,6.4,8.2-0.4,12.4c-3.4,2.1-6.3,5.1-5.2,9.9c1.3,5.3,5.7,4.1,9.5,5c11.1,2.5,16.9,10.3,14.3,18.2c-1.9,0.6-4.9-0.6-5.3,2.7
		c-0.2,1.8,1.4,2.5,3,2.5c5.9,1.9,5.8,12.1,14.5,10.5c2.7-0.5,7.2-2.7,7.5,2.3c0.3,4-5.2,2.5-7.3,4.7c-2-0.2-2.8,1.1-2.6,2.7
		c0.1,0.8,1.4,1.3,2.2,2c1.1,2.1,2.5,6.1,3.2,6c11.7-2,10.9,7.9,14.6,14c1.3,2.2,4.8,9.8,8.3,4.9c7.6-10.6,16.8-5.9,26-5.9
		c10.7,0,16.3,6.2,19.3,14.6c3.3,9.2-4.1,13.4-10.8,17.2c-1.8,2.5-1.2,3.8,1.8,4c4.8,2.2,9.1,1.5,13.3-1.8c3-2.4,7.7-3.6,9.8-0.7
		c5.3,7.2,12.8,11.4,20.3,14.2c6.8,2.5,15.1,1.1,22.2,4.5c0.3,0.1,2.8-2.8,3.1-4.6c1-5.6,4.6-7.1,9.5-6.8c5.4,0.3,9.3-1.7,13.9-4.9
		c6.7-4.6,15.6-6.2,21.2,2.1c5.9,8.8-2.8,11.4-8.2,15.1c-0.7,0.5-1.3,0.9-2,1.3c-1.7,1-3.8,1.8-3.4,4.3c0.5,3.6,3.3,2,5.4,2.5
		c8.2,1.8,16.3,4,23,9.5c5.1,4.2,10.7,9.4,8.3,15.9c-2.5,6.8-8.7,10.7-17.3,9.4c-3.7-0.5-10.1-3.9-11.2,4.2
		c-1.6,0.2-3.1,0.4-4.7,0.6c-0.4-1.1-0.4-2.6-1.1-3.4c-5-5-11.2-8.3-17.6-4.4c-7.4,4.6,0,8.6,2.1,12.6c3.3,5.9,2.4,11-3.7,14.2
		c-5.3,2.8-3,6.4-2.2,10.2c1.3,5.8,4,3.7,7.8,2.3c4-1.4,8.6,1.3,10.3,4.3c7,12.1,20.3,19,23.6,34.9c2.1,10.2,19.1,15.2,15.2,30.1
		c8.6,4.1,19.2,11.7,25.7,11.1c12.2-1,16.1,4,19.7,12.3c1.8,4.1,4.4,4.4,5.4,1c2.5-8.1,7.4-3.3,11.4-3c0.3,1.6,0.5,3.2,0.8,4.8
		c-1.1,1.7-2.5,3.2-3.2,5.1c-3,8.7-5.4,15.8,7.8,19.8c5.1,1.5,12.3-4.2,15.5,3.8c-3.1,1.7-6.3,3.4-2.4,7.3c-0.2,4.5-2.6,5.2-6.4,3.7
		c-3.7-1.5-7.5-0.4-6.2,3.7c2,6.8-5.4,21.4,12.4,16.9c1.2-0.3,3.9,0.9,4,1.7c1.2,7.7,5.6,5.5,10.4,4c2.6-0.9,5.4,0,7.6,3.8
		c-7,4.3-14.8,9.1-5.3,17.7c-4.7,2.3-8.3,4-11.8,5.7c-0.9,0.6-1.8,1.2-2.7,1.7c0.9,0.7,1.7,1.4,2.6,2c6.3,1.2-0.8,11.3,7.5,11.2
		c0.2,1.2-0.1,2.9,0.6,3.4c10.3,8.1,8.6,13.6-3.3,17.7c-4.4,1.5-4,6.4-2,9.1c4.3,5.7,4.1,11.1-0.7,17.4
		C2742.6,888.4,2750,886.2,2756.4,890.2z M2363.1,279.9c0.3,0.2,0.5,0.7,0.8,0.7s0.5-0.5,0.8-0.7c-0.4-0.2-0.8-0.5-1.2-0.7
		C2363.3,279.4,2363.2,279.6,2363.1,279.9z"/>
	<path class="st0" d="M2739.6,839.9c3.6-6.7,9.5-9.5,16.8-9.7c0,20,0,40,0,60c-6.4-4-13.8-1.9-22.2-2.6c4.8-6.3,5-11.7,0.7-17.4
		c-2.1-2.8-2.4-7.6,2-9.1c11.9-4.2,13.6-9.6,3.3-17.7C2739.5,842.8,2739.7,841.1,2739.6,839.9z"/>
	<path class="st1" d="M2192.1,117.1c2.1,0.2,4.2,0.3,6.4,0.5c-3.1,2.3,0.1,10.4-6.2,8.7C2187.6,125.1,2189.3,120.4,2192.1,117.1z"/>
	<path class="st1" d="M2384.1,260.9c0.1,2-0.1,3.8-2,5c-1.6-1-4.1-1.8-3.3-3.8C2379.2,261.2,2382.3,261.2,2384.1,260.9z"/>
	<path class="st1" d="M2729.9,760.5c0,2.7,0.5,5.6-2.4,7.3C2723.7,763.8,2726.9,762.2,2729.9,760.5z"/>
	<path class="st1" d="M2385.3,316.4c1,0.8,2,1.6,3,2.4c-1,0.8-2,1.6-2.9,2.4C2385.4,319.6,2385.3,318,2385.3,316.4z"/>
	<path class="st1" d="M2405.7,395.3c0.1,1,0.1,2,0.2,3.1c-1.4,1.2-3.1,1.2-3.3-0.7C2402.3,395.9,2404.2,395.4,2405.7,395.3z"/>
	<path class="st1" d="M2617,604.1c-0.2,1.8,0.1,4.2-2.5,4c-0.8-0.1-1.4-2.2-2.2-3.4C2613.9,604.5,2615.4,604.3,2617,604.1z"/>
	<path class="st1" d="M2709,727c1.1,0.7,2.8,1.1,3.2,2.1c0.6,1.6-1,2.3-2.4,2.7C2709.6,730.2,2709.3,728.6,2709,727z"/>
	<path class="st1" d="M2434.5,457.6c-0.7,1.7-1.5,3.4-2.2,5.1c-1.7,0-3.2-0.7-3-2.5C2429.6,457,2432.6,458.2,2434.5,457.6z"/>
	<path class="st1" d="M2016.9,69.2c1.7,0,3.3,0,5,0.1C2020.2,71.5,2018.5,73.8,2016.9,69.2z"/>
	<path class="st1" d="M2382,230.3c-0.1,1.6-0.1,3.2-0.2,4.8C2377.2,233.3,2379.6,231.8,2382,230.3z"/>
	<path class="st1" d="M2447,480.3c-0.1,1.6-0.2,3.2-0.3,4.8c-0.8-0.7-2.1-1.2-2.2-2C2444.2,481.4,2445,480.1,2447,480.3z"/>
	<path class="st1" d="M2363.1,279.9c0.1-0.3,0.3-0.5,0.4-0.8c0.4,0.2,0.8,0.5,1.2,0.7c-0.3,0.3-0.5,0.7-0.8,0.7
		S2363.3,280.1,2363.1,279.9z"/>
	<path class="st1" d="M2369.9,280.4c0,0.9,0,1.8-0.1,2.6c-0.9-0.5-1.9-1-2.8-1.5C2367.9,281.1,2368.9,280.7,2369.9,280.4z"/>
	<path class="st1" d="M2507.3,535.8c0.6,1.3,1.2,2.7,1.8,4C2506.1,539.6,2505.5,538.3,2507.3,535.8z"/>
	<path class="st1" d="M2732.2,824.9c0,1.3-0.1,2.5-0.1,3.8c-0.9-0.7-1.7-1.4-2.6-2C2730.4,826.1,2731.3,825.5,2732.2,824.9z"/>
	<path class="st2" d="M881.3,75.2c4,0.4,9.2,1,8.6,5.8c-0.7,5.8-7.1,5.4-11.5,6c-3.8,0.5-7.8-1-7.4-5.5
		C871.6,75.9,877.2,76.4,881.3,75.2z"/>
	<path class="st1" d="M2191.5,39.8c-0.1,2.6-1.6,4.6-3.4,4.3c-5.1-1-5.4-6.1-6.9-9.9c-0.8-2.2,1.4-3.5,3.7-2.9
		C2189.4,32.4,2190.2,36.4,2191.5,39.8z"/>
	<path d="M2388.2,291.6c0.9-0.3,2.4-1.1,2.5-0.9c0.9,1.2,0,1.9-1.1,2.2C2389.1,292.5,2388.7,292,2388.2,291.6z"/>
</g>
</svg>
